<svg width="39" height="30" viewBox="0 0 39 30" fill="none" xmlns="http://www.w3.org/2000/svg">
<path fill-rule="evenodd" clip-rule="evenodd" d="M12.1222 25.4542C18.4753 24.9334 23.5 20.0336 23.5 14C23.5 11.5311 22.6587 9.25199 21.2292 7.38511C25.7286 8.502 29 11.9849 29 17C29 19.6775 27.9885 21.9136 25.9656 23.7085C25.7456 23.9037 25.5524 24.1272 25.3911 24.3732C24.4179 25.8567 24.7821 27.8302 26.1888 28.8742L26.3494 28.9863L26.0893 29.0334C24.0169 29.3648 22.1433 28.6026 20.4689 26.7471C19.6753 26.9126 18.8489 27 18 27C15.8385 27 13.8225 26.4332 12.1222 25.4542Z" fill="#007AFF"/>
<path fill-rule="evenodd" clip-rule="evenodd" d="M11 4C17.0751 4 22 8.47715 22 14C22 19.5228 17.0751 24 11 24C10.1511 24 9.32475 23.9126 8.5311 23.7471C6.7869 25.6799 4.82667 26.4264 2.6506 25.9863V25.9863C4.49444 24.7768 4.3712 21.7738 2.813 20.2135C1.31385 18.7122 0 16.6427 0 14C0 7.84667 4.92487 4 11 4Z" fill="#007AFF"/>
<path d="M38.5 9C38.5 13.6944 34.6944 17.5 30 17.5C25.3056 17.5 21.5 13.6944 21.5 9C21.5 4.30558 25.3056 0.5 30 0.5C34.6944 0.5 38.5 4.30558 38.5 9Z" fill="#FE3B30" stroke="#FE3B30"/>
<path d="M27.0356 7.42383H28.1401C28.1401 6.33838 28.8701 5.62109 29.9683 5.62109C31.0474 5.62109 31.7012 6.34473 31.7012 7.31592C31.7012 8.12207 31.3584 8.59814 30.1904 9.86133L27.0928 13.2129V14H33.0215V12.9717H28.6797V12.8701L30.7617 10.7183C32.4121 9.01074 32.8691 8.24902 32.8691 7.19531C32.8691 5.70996 31.644 4.62451 30.0444 4.62451C28.2925 4.62451 27.0356 5.79248 27.0356 7.42383Z" fill="#FEFFFE"/>
</svg>
