<svg width="29" height="29" viewBox="0 0 29 29" fill="none" xmlns="http://www.w3.org/2000/svg">
<path fill-rule="evenodd" clip-rule="evenodd" d="M6.36751 2.06498C7.47524 1.1153 9.1431 1.24341 10.0928 2.35114C10.1716 2.44301 10.2439 2.54019 10.3094 2.64199L12.3124 5.75766C13.0555 6.90547 12.9637 8.39333 12.0868 9.41592L11.2711 10.3274C10.5809 11.0986 10.5896 12.2747 11.2912 13.0574C11.9301 13.9486 12.632 14.7766 13.397 15.5416L13.7847 15.9189C14.4397 16.5388 15.1385 17.115 15.8811 17.6474C16.6248 18.3139 17.7234 18.355 18.4926 17.7658L18.6112 17.6675L19.5227 16.8518C20.4988 16.0147 21.8988 15.8931 23.0224 16.53L23.1809 16.6262L26.2966 18.6292C26.3984 18.6947 26.4956 18.767 26.5875 18.8458C27.6952 19.7955 27.8233 21.4634 26.8736 22.5711C24.3067 25.1379 18.6791 26.1344 10.9601 18.5867L10.6543 18.2843C2.77819 10.4081 3.76687 4.66562 6.36751 2.06498Z" fill="#545458" fill-opacity="0.65"/>
</svg>
