<svg width="16" height="16" viewBox="0 0 16 16" fill="none" xmlns="http://www.w3.org/2000/svg">
<path fill-rule="evenodd" clip-rule="evenodd" d="M10.5766 9.24238C12.2142 7.08677 12.0492 3.99903 10.0815 2.03132C7.93359 -0.116561 4.45118 -0.116561 2.3033 2.03132C0.155412 4.17921 0.155412 7.66161 2.3033 9.8095C4.27125 11.7775 7.35951 11.9423 9.51516 10.3041L13.4593 14.2479L13.5361 14.3151C13.83 14.5388 14.2514 14.5164 14.5199 14.2479C14.8128 13.9551 14.8128 13.4802 14.5199 13.1873L10.5766 9.24238ZM3.0104 2.73843C4.76776 0.98107 7.617 0.98107 9.37436 2.73843C11.1317 4.49579 11.1317 7.34503 9.37436 9.10239C7.617 10.8597 4.76776 10.8597 3.0104 9.10239C1.25304 7.34503 1.25304 4.49579 3.0104 2.73843Z" fill="#3C3C43" fill-opacity="0.6"/>
</svg>
